<svg xmlns="http://www.w3.org/2000/svg" fill="none" viewBox="0 0 400 400"><path fill="#000F46" d="M0 0h400v400H0z"/><path fill="#fff" d="m280.339 83.4-25.946-33.694c-3.792 2.37-9.768 4.699-15.786 4.699s-10.345-.557-15.415-1.566c-6.285-1.258-13.416-2.659-24.729-2.659-11.314 0-18.445 1.422-24.73 2.659-5.091 1.01-9.398 1.566-15.415 1.566-6.018 0-11.994-2.329-15.786-4.699L116.545 83.4c3.215 3.092 9.068 10.057 9.068 19.949 0 6.739-.99 12.839-2.123 19.908-1.546 9.5-3.277 20.278-3.277 36.311 0 27.492 17.538 51.191 45.75 61.825 20.423 7.687 28.955 13.354 32.479 16.466 3.524-3.133 12.056-8.779 32.478-16.466 28.234-10.634 45.751-34.313 45.751-61.825 0-16.033-1.752-26.811-3.277-36.311-1.154-7.069-2.123-13.169-2.123-19.908 0-9.892 5.853-16.878 9.068-19.949"/><path fill="#000F46" d="M254.393 49.706 280.338 83.4c-3.215 3.091-9.067 10.057-9.067 19.949 0 6.739.989 12.839 2.122 19.907 1.546 9.501 3.277 20.279 3.277 36.312 0 27.491-17.537 51.191-45.75 61.824-20.423 7.687-28.955 13.355-32.479 16.466-3.524-3.132-12.055-8.779-32.478-16.466-28.233-10.633-45.75-34.312-45.75-61.824 0-16.033 1.751-26.811 3.276-36.312 1.154-7.068 2.123-13.168 2.123-19.907 0-9.872-5.853-16.858-9.068-19.95l25.946-33.693c3.792 2.37 9.768 4.698 15.786 4.698s10.345-.556 15.415-1.566c6.285-1.257 13.416-2.659 24.73-2.659s18.444 1.422 24.73 2.659c5.09 1.01 9.397 1.566 15.415 1.566 6.058 0 12.014-2.329 15.827-4.699m.474-2.7-1.567.968c-3.4 2.123-9.047 4.39-14.714 4.39-6.12 0-10.283-.577-15.023-1.525-6.389-1.257-13.602-2.7-25.122-2.7s-18.753 1.443-25.121 2.7c-4.74.948-8.903 1.525-15.023 1.525-5.668 0-11.314-2.267-14.715-4.39l-1.566-.968-1.113 1.463-25.945 33.694-1.113 1.443 1.298 1.257c3.153 3.03 8.449 9.46 8.449 18.486 0 6.574-.968 12.591-2.102 19.577-1.545 9.583-3.318 20.444-3.318 36.642 0 28.357 18.033 52.777 47.07 63.72 20.731 7.811 28.851 13.437 31.86 16.095l1.339 1.196 1.34-1.196c2.988-2.658 11.108-8.284 31.86-16.095 29.037-10.943 47.069-35.343 47.069-63.72 0-16.198-1.751-27.059-3.318-36.642-1.133-6.986-2.102-13.024-2.102-19.577 0-9.027 5.297-15.457 8.45-18.486l1.298-1.257-1.113-1.443L256 48.47z"/><path fill="#000F46" d="M266.016 103.019c0-8.903 3.854-15.766 7.46-20.238l-20.567-26.687c-3.874 2.06-8.696 3.235-14.302 3.235-6.533 0-11.334-.639-16.445-1.67-6.059-1.194-12.942-2.554-23.741-2.554s-17.682 1.36-23.74 2.555c-5.111 1.01-9.913 1.67-16.446 1.67-5.605 0-10.427-1.175-14.302-3.236L123.366 82.78c3.607 4.472 7.46 11.335 7.46 20.238 0 7.151-1.009 13.457-2.205 20.752-1.504 9.315-3.215 19.866-3.215 35.467 0 25.245 16.219 47.048 42.35 56.899 16.219 6.1 25.451 11.108 30.665 14.735 5.214-3.627 14.447-8.635 30.665-14.735 26.131-9.83 42.35-31.634 42.35-56.899 0-15.621-1.71-26.173-3.215-35.467-1.195-7.295-2.205-13.601-2.205-20.752"/><path fill="#000F46" d="M139.152 64.193c-10.201-2.328-14.921-3.792-14.921-3.792 0 6.142 3.154 9.192 3.154 9.192s.68 2.266 2.617 5.646M266.139 96.012c4.596-2.576 5.811-3.627 7.419-8.263 0 0 3.627-3.154 5.152-5.709 4.163-4.41 5.44-9.83 5.482-9.871 3.235-3.833 4.286-9.13 4.286-9.13 3.256-5.11 3.668-9.665 3.668-9.665s-7.522 2.514-23.555 7.625c-2.328.742-10.922 3.71-10.922 3.71"/><path fill="#fff" d="m144.634 117.32 1.586 4.019 4.225-1.237-2.061 3.731 3.607 2.782-4.328.371.206 4.389-3.153-2.844-3.4 2.844.309-4.183-4.122-.928 3.668-2.576-2.019-3.771 3.874 1.381zm23.225 10.387-3.874-1.278 1.999 3.71-3.669 2.534 4.246.928-.412 4.245 3.359-2.844 3.256 2.844-.268-4.389 4.348-.371-3.544-2.721 1.999-3.771-4.225 1.134-1.546-3.916zm-29.429 25.327-3.874-1.277 1.958 3.668-3.607 2.535 4.122.927-.35 4.225 3.4-2.885 3.153 2.885-.206-4.431 4.328-.371-3.565-2.782 2.019-3.668-4.245 1.174-1.546-3.977zm29.573 1.546-3.709.062 3.091 2.329-1.133 3.771 3.132-2.267 3.153 2.267-1.175-3.771 3.092-2.37h-3.813l-1.236-3.669zm-.309 26.008-3.874-1.34 1.958 3.71-3.669 2.534 4.184.928-.309 4.224 3.359-2.885 3.194 2.947-.309-4.328 4.389-.515-3.565-2.782 2.02-3.668-4.184 1.195-1.545-4.018zm37.754 10.077c2.35-1.175 2.968-2.308 3.73-3.771l.062-.124c.165-.33.309-.659.454-1.01a12 12 0 0 1 1.051-2.061v-.041c-12.695-14.426-21.639-31.324-24.73-37.218-.021-.041-.083-.021-.083.02-.185 5.111-.082 15.745 3.504 22.772 2.019 3.937 2.349 4.328 7.748 10.964l.845 1.051.598.721c.021.042 0 .083-.041.062-.68-.33-1.752-1.03-1.752-1.03-1.587-.907-5.317-3.833-8.594-8.573-.02-.042-.082-.021-.082.02-.165 6.987 3.421 13.561 5.812 16.137 2.308 2.493 5.605 2.864 7.377 2.864 1.587 0 3.112-.309 4.101-.783m23.102 4.41c3.174-.185 7.089-1.422 8.491-3.441.432-.536 1.133-1.278 2.761-2.206.989-.515 1.937-.844 2.782-1.133 2.494-.845 4.143-1.401 4.122-5.956-17.558-10.51-24.689-21.082-24.215-21.144 0 0 3.05 3.091 7.481 6.677 3.874 3.133 12.056 9.975 19.207 13.169.495.247.021 6.924-4.019 8.738-.35.165-.865.371-1.483.597-2.102.784-5.276 1.958-4.946 4.101.103.186.783.454 2.205.454 3.153 0 7.254-1.257 8.82-4.039.618-1.113 1.072-2.123 1.484-3.009 1.277-2.782 2.061-4.493 5.688-5.276-1.525-1.628-9.542-10.18-13.251-14.158-3.916-4.204-6.76-8.944-7.069-9.459 0-.02-.639-1.03-1.587-1.669-3.977-3.091-8.284-3.936-12.097-4.678-4.183-.742-6.265-1.525-7.687-2.885-2.39-2.226-1.999-5.791-1.834-7.131 0-.082.021-.165.021-.247-.227.247-.598.845-.763 1.092-.618 1.01-1.566 2.514-3.318 2.514a3 3 0 0 1-.597-.061c-1.381-.248-2.35-.928-3.112-3.607-.206-.701-.598-.927-.763-.948-.226 0-.329.083-.391.144-.618.66-.474 3.071-.248 4.143.062.474-.082.742-.206.886-.164.206-.432.309-.742.309-.37 0-.7-.165-.844-.412a20 20 0 0 1-1.258-2.102c-.288 1.092-.844 2.267-2.122 2.287-.928 0-1.752-.742-2.638-1.525-.989-.886-1.814-1.566-2.514-1.566-.227 0-.433.062-.66.206a2.07 2.07 0 0 1-1.154.371c-.494 0-.927-.206-1.257-.598-1.195-1.545.33-3.544.927-4.204-.391-.268-1.257-.535-2.328-.535-.804 0-2.741.164-3.586 1.607-.268.886.247 1.896.659 2.72 1.546 3.401 13.746 25.204 26.276 39.032.804.928.886 1.752.288 2.556-1.689 2.37-2.267 4.245-1.71 5.564.701 1.669 2.947 2.04 2.967 2.04a8.6 8.6 0 0 0 1.69.165c2.473 0 3.277-1.34 4.204-2.885 1.196-2.144 2.37-2.597 3.153-2.597.433 0 .742.124.866.186l.041.02c.289.144.66.577.783 1.134.103.432.124 1.133-.432 1.916l-.021.021c-.515.577-1.443 1.01-2.246 1.401-.804.392-1.711.824-1.67 1.154.124.454 3.236 2.226 7.419 2.226.165.041.289.041.433.041m-21.597-39.877c2.205 3.215 8.099 11.788 18.197 23.288 0 0 .7.947-.309 2.864l-.454.68-.329-.721s-.31-.701-.969-1.443c-12.344-14.158-17.641-26.316-17.579-26.358 0 .021.268 0 1.443 1.69m30.356 1.175c.515-.371.783-1.36.783-2.988 0-.886 0-1.731.536-2.432a2.85 2.85 0 0 1 2.06-1.154 100 100 0 0 0-3.194-1.793c-3.029-1.649-7.501-4.08-12.921-8.078 1.298 1.751 2.967 3.503 4.863 5.152l.68.597c-.041.062-.783-.185-.783-.185-.062-.021-1.504-.515-2.411-1.092a.4.4 0 0 0-.103-.062c-2.638-1.505-5.152-3.936-7.11-6.904-.02-.041-2.596-4.245-5.729-11.355-.927-2.123-5.956-10.655-7.893-12.468-3.029-.618-6.904-.66-8.016-.66-.598 0-1.113.021-1.443.042-2.308.144-4.039.535-4.946.886-3.957 10.963-5.234 18.671-5.585 23.225l-.041.371a8.1 8.1 0 0 1 3.297-.7c2.123 0 4.019.824 4.41 1.937.31 1.009-.144 1.545-.597 2.061-.268.329-.557.638-.68 1.112.453-.226.927-.35 1.422-.35 1.545 0 2.864 1.175 3.833 2.04l.02.021c.763.701 1.093.907 1.237.989.144-.227.515-1.113.721-4.183v-.042c-1.607-9.479 3.339-16.177 3.339-16.177s-3.215 10.881-.825 17.537c.413-1.648 1.381-2.184 2.185-2.308.124-.02.247-.041.371-.041 1.03 0 2.287.742 2.761 2.391.577 2.019.969 2.081 1.546 2.205.082.02.165.02.227.02.577 0 .948-.474 1.648-1.586.577-.928 1.299-2.102 2.597-2.102.144 0 .309.02.474.061.639.145 1.504.804 1.339 2.041-.844 6.553 2.082 7.13 7.914 8.263 3.215.639 7.192 1.402 11.005 3.731-.433-.887-1.154-1.69-1.669-2.247a9 9 0 0 1-.516-.597l-.268-.371.454.041c.041 0 3.874.371 4.76 5.214h.021c.041.062.124.02.227-.062m4.121-4.761c-.206 0-.412.021-.639.083-.762.185-.824.783-.845 1.875-.02.804-.041 1.773-.556 2.679 2.288-.494 3.73-1.669 3.71-3.07-.021-.516-.248-.969-.619-1.257-.268-.207-.639-.31-1.051-.31m-27.182-29.717c.041.062.124.062.186 0 1.648-1.978.515-6.182.164-7.769 2.329 1.401 5.523 2.391 7.275 2.556.206-1.999-.309-4.04-1.175-6.43 2.618 1.896 6.513 3.029 7.832 2.967.288-2.102-1.258-6.058-1.361-6.615.99.392 3.318 1.711 5.276 1.937.515-1.277.845-3.359.66-5.378 0 0-3.628.7-5.441.7-.495 0-.948-.02-1.34-.062-1.009-.082-2.864-.432-4.698-.824-1.051-.227-2.123-.412-3.05-.577-.371-.062-.742-.124-1.072-.206a35 35 0 0 0-3.235-.433 31 31 0 0 0-1.876-.082c-.02 0-.02 0-.02.02-.639 3.978-2.968 7.502-4.225 9.418-.185.289-.35.536-.474.722v.02c2.452 3.442 5.956 9.068 6.574 10.036m-43.524-24.874c-.907-.803-1.237-1.751-.948-2.679-1.67-.206-4.555-.742-6.863-2.02-1.01.227-4.266.887-8.346.887-.907 0-1.855-.02-2.865-.083.083.062.165.103.247.165.866.557 1.732 1.134 2.597 1.299.35-.062 1.175-.124 3.256-.268.309-.021.639-.042.948-.042 2.185 0 4.575.763 7.295 2.35.227.082 2.453.968 3.627 1.566.186-.247.557-.66 1.052-1.175m95.168-3.07c1.855-.495 3.957-2.39 5.132-4.534-2.35 1.38-4.287 1.937-6.533 1.937q-.65 0-1.422-.062c-.33.536-.701 1.546-2.514 2.432 1.834.742 4.41.474 5.337.227m-29.737.453c.948-.103 1.792-.206 2.534-.288 4.823-.557 5.565-.64 6.306-1.113.104-.062.268-.227.454-.433.598-.598 1.484-1.484 2.493-1.607.145-.021.289-.042.413-.062.123-.02.268-.041.391-.062.433-.062.804-.144 1.134-.392.845-.597 1.628-1.154 2.411-1.195h.041c.618 0 .886.598.948.804.165.309.144 1.05.103 1.587.206-.042.474-.124.721-.227.062-.02.145-.062.248-.103.309-.124.741-.31 1.133-.433a2.3 2.3 0 0 1 .68-.124c.454 0 .721.227.989.516.433.453.68 1.092.742 1.566 1.319-.371 2.514-1.257 3.03-1.896-1.979-.556-4.534-1.772-6.08-3.689-.659-.824-.907-1.628-.968-2.226-7.048 2.68-19.084 5.358-22.999 6.183.124.453.124.907 0 1.34a2.7 2.7 0 0 1-.577 1.05c.433.371 1.381 1.299 1.381 1.299s3.895-.433 4.472-.495m-62.773-2.123a2.8 2.8 0 0 1-.309-1.092c-4.616-2.782-9.892-3.627-12.88-3.895.865 1.237 1.916 2.205 3.235 3.03 3.03 1.875 7.831 2.163 8.491 2.205.268-.062.845-.165 1.463-.248m-12.756-1.545c-1.134-.969-2.02-2.082-2.803-3.462a39 39 0 0 1-4.328.267c-4.472 0-8.841-.886-13.313-2.7 2.226 2.268 6.1 5.318 9.398 6.019 1.586.247 3.256.37 4.966.37a37 37 0 0 0 6.08-.494m93.849-8.079c.062-.103.412-.556.989-.989.31-.247.639-.453.99-.597l.309-.124c1.257-.556 2.576-1.113 3.338-1.69l.227-.165c.577-.412 1.113-.824 1.525-1.607a16.8 16.8 0 0 1-5.173-1.113c-12.88 2.803-25.162 7.666-29.078 9.294.866.804 1.051 1.876.577 3.256a3.1 3.1 0 0 1 1.546.516c2.081-.454 17.496-3.73 24.75-6.78m16.466 4.41c1.546-1.133 3.607-2.658 5.358-4.966-4.451 1.855-7.934 2.246-12.653 2.287h-.33c-3.38 0-5.791-.535-6.965-.865-.124.124-.206.227-.248.268-.062.103-.577 1.01.371 2.164 1.587 1.957 4.637 3.09 6.306 3.276a14 14 0 0 0 1.67.103c1.401.021 3.606-.206 6.491-2.267m-114.066-1.69c-.474-1.092-.845-2.204-1.216-3.297l-.062-.144c-.907-2.658-3.215-3.4-3.462-3.462-10.984-2.308-18.795-5.915-22.71-8.676 1.38 3.194 2.761 6.059 4.987 8.49 2.679 2.947 6.285 4.946 11.314 6.286h.041c1.546.392 3.071.66 4.534.783 1.133.103 2.267.144 3.359.144a22.5 22.5 0 0 0 3.215-.123m67.904-.782h.165c1.628-.722 14.322-6.162 28.666-9.583-2.988-1.237-5.791-1.814-8.759-1.814-2.246 0-4.616.33-7.213 1.03-8.305 2.206-13.519 5.503-16.053 7.46.432.104.803.29 1.154.557.865.66 1.319 1.505 1.319 2.411.247-.04.494-.061.721-.061m39.073-2.247c2.885 0 7.192-.33 11.19-1.834 3.792-1.484 5.791-5.482 6.512-7.316-5.543 2.968-10.675 3.813-17.558 4.266-.597 1.855-1.669 2.638-2.514 3.256l-.206.165c-.577.433-1.36.845-2.102 1.195.969.103 2.597.268 4.678.268m-87.791 18.362c2.473-2.184 3.586-2.802 6.76-4.163 1.957-2.555 4.657-4.08 7.48-4.266-3.276-2.596-5.44-5.255-5.461-9.356-.02-4.08-2.39-8.264-4.554-9.81-3.462-2.637-8.079-2.864-14.488-3.152-4.328-.206-9.232-.433-15.023-1.443-.083-.02-10.036-2.02-12.819-2.658-.082-.02-7.377-1.505-11.313-2.72.535 1.751 2.06 3.544 4.533 5.358.31.206 7.625 5.131 20.98 7.954l.144.042s.948.206 1.277.267c11.356 2.185 13.746 2.865 13.973 2.927 3.503.989 6.368 2.267 7.439 3.318.495.453 1.072 1.154 1.113 1.195l.495.598-2.185-.825c-2.576-.968-4.616-1.669-7.377-2.349-.083-.02-1.999-.577-10.511-2.246a7.6 7.6 0 0 1 .99 1.957l.061.145c.433 1.257.866 2.555 1.443 3.771 2.123.082 8.82.618 14.714 4.019.783-.969 2.02-1.175 2.947-1.175h.145a2.98 2.98 0 0 1 .721-2.143c.783-.907 1.958-1.01 2.761-1.01.186 0 .371 0 .516.02.226-.391.803-.803 1.154-1.03.515-.33 1.566-.577 1.628-.577l.577-.124-.763.948c-.989 1.402-.742 2.473-.742 2.494l.083.288-1.01-.123a8 8 0 0 0-.721-.041c-.948 0-1.731.185-1.979.474-.556.638-.103 1.525-.103 1.545l.763 1.505-.371-.042c-.268-.02-.557-.061-.825-.082-.597-.062-1.215-.144-1.751-.144-.825 0-1.319.165-1.525.515l-.021.062c-.206.37-.474.886 1.401 2.679l.31.309-.433.062c-.021 0-2.72.35-4.039.824-.351.124-.557.31-.598.515-.021.124 0 .536.927 1.072l.969.577s-2.164 1.051-2.205 2.452zm-20.423-28.83c-.02 0 0-.021 0-.021 1.072 0 6.08.886 8.965 1.195 1.484.185 9.047 1.133 11.273 2.473 2.205 1.298 3.276 3.606 3.977 5.461l.371 1.01s-.309 0-1.525-1.278c-.824-1.03-2.04-2.576-3.854-3.483-5.234-2.514-13.787-2.431-19.207-5.358m107.019 3.626h.494c4.143-.165 12.365-1.174 16.858-3.853 3.73-2 4.843-4.864 5.791-7.44-.042.02-.165.062-.165.062-.989.412-2.123.886-3.936 1.504l-.886.289c-2.35.803-5.894 1.875-9.46 2.844-5.976 1.628-11.293 4.1-14.157 5.564 1.215.433 3.214 1.03 5.461 1.03m-57.518 7.213c1.443-1.257 1.402-2.246 1.257-2.864-.762-1.896-2.205-3.07-4.286-3.463l-9.583-1.318a1 1 0 0 0-.103.164c.082.042.185.103.288.145 1.072.535 3.298 1.648 4.101 3.998.248.7.681.742 3.195.886l.762.041c.598.041.866.062 1.319.103 1.072.124 1.876 1.01 2.04 1.175.145.165.598.742.701 1.401zm24.05 12.84c.165-.042.33-.083.474-.124-1.092-1.216-2.432-2.061-2.432-2.061l.742-.371c.598-.31.969-.66 1.051-1.01.041-.165 0-.31-.103-.536-.268-.536-.804-.804-1.566-.804-.309 0-.598.042-.783.083l-1.731.268.68-1.278c1.174-2.308.536-2.74.247-2.947a2.24 2.24 0 0 0-1.319-.433c-.515 0-.948.165-1.319.31a3 3 0 0 1-.288.102l-1.773.64s.639-1.382.68-1.464c.413-.886.495-1.504-.247-2.102-.309-.227-.639-.35-.989-.35s-.721.123-1.092.37l-1.67 1.134.083-.474c.288-1.731-1.422-4.142-1.422-4.142s.968.082 2.287.804c.083.04.145.082.206.103 2.37-2.205 7.832-6.203 18.218-8.965 2.782-.742 5.317-1.092 7.728-1.092 3.401 0 6.595.7 10.057 2.205 1.958-1.051 8.449-4.39 15.951-6.43 3.915-1.072 7.728-2.35 9.191-2.844l2.514-.906c2.391-.948 5.276-2.577 6.657-6.884l-30.047 10.057c-4.493 1.793-12.571 2.453-19.722 3.05-3.462.289-6.718.557-9.13.927-13.292 2.309-14.673 8.718-15.415 12.18a4.5 4.5 0 0 1-.144.618c-.597 3.195-1.896 5.709-3.833 7.481.453-.02.989-.02 1.237-.02 1.401.04 2.39.412 3.441.865.371.165.763.33 1.154.515.309.144.639.289.969.433 1.484.66 3.483 1.257 6.615 2.143l.247.062c.783.227 1.402.392 1.938.577.494.165 1.298.495 1.504.577.391-.082.783-.165 1.154-.268M205.84 75.856c.742-.392.804-1.505.701-1.876-.31-1.071-1.113-1.875-2.37-2.39-.68-.247-1.567-.35-2.618-.35-3.256 0-7.419 1.236-8.346 2.431l9.233 1.051c.474.062 1.71.33 2.988 1.237.165-.02.288-.062.412-.103m-54.777 20.731c-.515-.515-1.319-.803-1.957-.865-1.319-.082-2.783.453-4.04 1.628 2.844.165 3.277 1.422 4.802.227zm.783.784-.968 1.092c-1.154 1.401 0 1.834.103 4.492 1.133-1.133 1.669-2.514 1.628-3.73-.041-.618-.289-1.38-.763-1.854m-3.606 3.276-.804 1.216c-.927 1.566.289 1.814.763 4.431.948-1.298 1.298-2.72 1.051-3.936-.103-.598-.474-1.319-1.01-1.711m-2.597 4.225-.618 1.278c-.701 1.628.495 1.731 1.298 4.183.763-1.36.907-2.803.516-3.936-.186-.556-.619-1.195-1.196-1.525m1.464-4.967c-.619-.35-1.484-.412-2.123-.288-1.278.268-2.556 1.216-3.421 2.679 2.782-.618 3.545.453 4.678-1.113zm-2.803 4.349c-.701-.227-1.566-.124-2.185.144-1.236.536-2.328 1.731-2.905 3.38 2.658-1.175 3.647-.248 4.472-2.04zm-.948 3.957c-.474.35-.804.968-.928 1.483-.226 1.051.042 2.308.845 3.463.474-2.288 1.525-2.494.742-3.875zm19.907-5.214-.329 1.525c-.351 1.916.968 1.71 2.431 4.163.474-1.649.268-3.215-.412-4.328-.35-.557-.989-1.154-1.69-1.36m-1.051-.309c-.639-.186-1.442-.062-1.999.185-1.113.515-2.081 1.649-2.555 3.174 2.39-1.154 3.318-.33 4.039-1.999zm-1.236 4.698c-.618-.288-1.422-.288-1.999-.103-1.175.351-2.288 1.319-3.009 2.762 2.535-.783 3.339.165 4.287-1.381zm-2.535 4.266c-.556-.35-1.34-.453-1.917-.35-1.174.185-2.39.989-3.256 2.287 2.556-.432 3.195.598 4.307-.783zm3.668-3.73-.742 1.381c-.865 1.751.454 1.916 1.196 4.657.906-1.463 1.154-3.009.783-4.286-.186-.619-.639-1.36-1.237-1.752m-2.638 4.39-1.009 1.236c-1.216 1.566.061 2.02.268 4.905 1.195-1.278 1.751-2.803 1.648-4.142-.062-.66-.371-1.484-.907-1.999m-2.947 2.905-1.277-.103c-1.587-.062-1.278.989-3.091 2.453 1.38.185 2.637-.165 3.462-.845.432-.33.824-.928.906-1.505m50.223-12.117c.268 2.617.494 4.863-.598 6.883v.02a19 19 0 0 1-.68 1.525c-3.091-.535-6.492-.577-7.46-.577-.598 0-1.113.021-1.484.042-1.463.082-2.823.288-3.957.577.144-.474.392-1.196.845-1.793l.247-.351-.432.021c-.206.021-.412.021-.619.021-1.71 0-2.72-.413-3.503-1.422-.536-.742-.68-1.67-.371-2.473.247-.701.804-1.402 1.319-2.082.453-.597 1.443-2.164 1.772-2.844.206-.412.412-.845.598-1.319.433.578 1.072.969 1.958 1.175.515.124.968.186 1.422.186.865 0 1.772-.207 2.905-.681-1.504 1.34-5.729 2.185-5.729 2.185-.103.124-.041.288.103.35.042.021.083.021.103.042a6.5 6.5 0 0 0 1.67.206c1.772 0 3.4-.701 5.172-1.546 2.865-1.504 6.368-6.285 6.513-6.492.206-.288.494-.535.783-.7-1.257 2.225-.99 4.657-.722 7.213.021.618.083 1.215.145 1.834m-2.535 2.802c-.701 1.319-1.443 2.473-4.019 2.576-3.173.145-3.977-2.122-3.977-2.122.185.989.948 3.915 3.998 3.792 3.895-.165 3.998-4.246 3.998-4.246m4.307.742.185-.247c.227-.288.413-.639.433-.701 1.154-2.122 1.34-3.792 1.422-4.513l.021-.103s.165-1.319.68-1.319c3.318 0 7.316.66 10.448 1.278.825.165 1.69.33 2.514.494 1.072.268 2.247.392 3.483.392 1.772 0 3.689-.268 5.667-.804l8.12-2.39c.33-.083.66-.144.989-.227 1.175-.268 2.308-.556 3.627-.556.371-.02 1.031.082 1.381.082 2.844 0 6.162-1.422 7.131-2.164 1.009-.783 1.195-1.463 1.339-2.267.062-.37.041-.597-.062-.72a.34.34 0 0 0-.247-.104c-.247 0-.66.165-1.195.371-.742.288-4.246 1.257-4.988 1.298.145-.247.66-.742 1.155-1.113.659-.494 1.277-.968 1.36-1.854 0-.165-.124-.227-.227-.227-.062 0-.165.062-.227.082-.268.145-.515.33-.762.516-.598.432-1.216.886-2.04.886h-.083c-.886.082-1.401.597-1.937 1.133-.577.577-1.175 1.175-2.288 1.32l-11.643 1.524c-.886.103-1.752.289-2.576.474-.804.186-1.649.371-2.473.474-1.628-.639-3.483-1.154-5.276-1.648-2.473-.701-4.802-1.34-6.471-2.247-.227-.123-2.37-1.257-4.492-1.257-.495 0-.969.062-1.381.186h-.041c-.248.164-2.494 1.772-2.205 6.182.123 1.793.247 3.071.37 4.101.062.598.124 1.092.165 1.587 0 .103.062 1.03.042 1.752zm-16.94-12.715h-.309c-2.597 0-4.987 1.38-7.131 4.08-2.782 1.175-4.925 2.597-7.46 4.534-.371-.041-3.4-1.174-6.326-2.267-1.773-.66-3.607-1.36-5.008-1.854-1.979-1.381-4.39-2.226-5.874-2.432a6 6 0 0 0-.948-.062c-1.566 0-3.503.33-4.101.618-.082.02-.226.103-.247.268a.3.3 0 0 0 .083.227c.082.082.206.124.432.124.227 0 .536-.042.907-.103.495-.062 1.113-.165 1.731-.165 1.772 0 2.782.7 3.215 2.205-.639.123-.865.309-1.092.515-.247.227-.474.433-1.298.556l-.207.042h-.02c-.144.041-.247.123-.247.226-.021.145.103.268.144.289.185.144.474.226.824.226s.742-.082 1.051-.226c.33-.165.721-.206 1.134-.248a5.2 5.2 0 0 0 1.957-.618c2.144.907 4.204 2.247 6.162 4.019 1.319 1.195 2.824 2.576 5.729 4.101.186.082.454.165.763.165.494 0 1.051-.206 1.69-.639 1.793-1.051 11.066-6.409 11.994-6.883h.02l.021-.021c1.113-1.072 1.752-3.318 1.834-3.586.041-.144.082-.33.144-.515.227-.804.536-1.896.577-2.473l.021-.103zm19.578-14.281c-.701.68-1.36.886-1.855.886a3.8 3.8 0 0 1-1.504-.33 1.7 1.7 0 0 0 .123.721c.206.536.742.845 1.237.845 1.113 0 1.999-1.01 1.999-2.122m-3.565-1.32q1.359.867 2.349.433c.865-.391 1.236-1.4 1.257-1.525.124-.803-.227-.927-.701-1.071-.412-.144-.906-.31-.948-1.03 0-.268-.082-.433-.226-.516-.248-.165-.701-.041-.928.062-.144 1.587-.968 2.329-1.566 2.68zm-9.089-8.119s-1.092-.495-2.287-.598c-1.463-.123-2.432.186-2.988.454-.907.433-1.34 1.566-.866 2.267 1.401-1.134 3.648-1.793 6.141-2.123m8.965 21.433c-.495-.165-.804-.248-1.257-.433-3.277-1.298-2.02-4.493-2.473-7.028-.062-.515-.206-1.03-.866-.824-.309.082-1.483 1.36-3.338.7.721-.226 1.381-.453 1.834-.803.618-.474.824-1.092.515-1.525-.185-.31-.618-.37-.968-.268-.31.103-.66.598-.557 1.092 0 0-.742.083-1.525-.66-.33-.308-.886-.411-1.525-.39-.907.061-1.484-.166-1.813-1.175-.392-1.69-2.185-3.05-3.627-3.813-.371.948-.722 1.587-.701 2.72.103.763 1.463.619 1.958.701 1.401.35-.907 1.34-.887 2.02-.144-.206-.247-.618-.041-.804.351-.495-.391-.453-.577-.7-.041 1.339-1.092 3.214-1.01 3.688.021.124 1.196.206 1.196.206.309.289.103.845.144 1.237 0 .02.041.041.062.041.082.041.494.082.618.082.103.021.206.103.206.207 0 .123-.082.206-.206.206 0 0-.165 0-.35-.042.082.35.062.722.556.928.247.35-.103 1.319.536 1.484 1.772.412 4.08-1.587 5.997-2.927-.289 1.134-1.875 2.35-2.267 3.483 0 0-.062 1.813-.453 2.988-.474 1.422-1.999 1.154-3.133 1.731 0 .083-.02.186-.041.31-.021.164-.062.35-.062.556v.103c0 .041-.02.103-.02.185-.083.742-.31 2.741.968 3.421.412.206.886.31 1.443.31 1.277 0 2.885-.557 4.616-1.608 1.855-1.113 2.823-1.978 3.874-2.906a20.3 20.3 0 0 1 3.174-2.493m27.12 11.149c2.041 3.276 5.173 3.194 7.337 2.576-2.473-.825-3.359-1.257-5.214-3.174.021 0-1.154.371-2.123.598m-44.225 8.614c-.701-.206-1.071-.371-1.669-.783-1.896-1.278-3.03-4.019-1.669-6.389.02-.062.103-.206.35-.597-1.03.638-10.016 5.914-10.016 5.914s.042.66.928.989c1.834.577 4.039.062 5.275-.185-.865.927-1.937 2.823-1.36 4.946 1.814-.454 2.679-.763 4.039-2.824-.041 1.917-.164 5.091 1.526 6.657.288-.845 1.298-3.957 2.596-7.728m48.285-9.727c.928.927 2.329 2.184 5.544 2.741 1.71.268 4.554-.103 5.708-.413-3.194-.762-4.966-2.184-6.739-3.668-.556.103-2.72.66-4.513 1.34m7.028-1.958c1.298 1.051 2.926 2.37 5.646 3.071 3.236.783 7.563-1.134 7.811-1.381-2.844-.144-4.987-1.134-7.193-2.535-2.679 1.381-5.255.433-6.264.845m8.408-1.896c1.442.783 2.596 1.236 3.936 1.587 3.544 1.071 5.75-1.505 6.759-2.988.042-.062.042-.186-.061-.186-4.596-.02-4.967-.433-6.76-1.195-.268.598-1.195 2.06-3.874 2.782"/><path fill="#000F46" d="M198.441 213.891c35.92 0 42.102 28.872 78.95 28.872 22.318 0 22.751-9.479 22.751-9.479l-3.771-19.372c4.884-5.832 24.874-5.152 24.874-5.152l-17.331-22.463c-16.116 1.03-29.347 5.193-29.347 12.179v20.815c-21.721 0-36.229-28.749-76.106-28.749s-54.405 28.749-76.106 28.749v-20.815c0-6.965-13.251-11.128-29.346-12.179L75.678 208.76s20.01-.701 24.874 5.152l-3.772 19.372s.433 9.479 22.752 9.479c36.806 0 43.009-28.872 78.909-28.872"/><path fill="#fff" d="M284.398 207.215c8.573 2.37 9.376 3.895 9.582 4.76.165.886-.041 1.711-.659 2.494-2.184 2.782-8.779 4.657-16.837 4.802v-16.034c1.608 1.649 4.225 2.968 7.914 3.978m-7.893-8.821c0 3.937 4.101 5.75 8.428 6.945 8.223 2.267 10.366 3.957 11.005 6.306 3.854-2.967 10.634-4.224 21.288-4.636l-14.446-18.795c-5.358.536-11.273 1.36-15.435 2.597-6.471 1.916-10.84 4.636-10.84 7.583m18.238 17.476c-3.174 3.792-11.458 5.255-18.238 5.379h-1.958c-9.81 0-17.929-5.317-27.327-11.458-12.014-7.852-25.595-16.734-46.821-17.249h-3.916c-21.247.515-34.807 9.397-46.822 17.249-9.397 6.141-17.517 11.458-27.326 11.458h-1.958c-6.78-.124-15.065-1.587-18.238-5.379l-3.4 17.476c.288 1.154 2.658 7.481 20.752 7.481 17.929 0 28.13-6.925 38.929-14.241 10.221-6.945 20.793-14.096 38.063-14.611h3.916c17.269.515 27.841 7.666 38.063 14.611 10.799 7.316 21 14.241 38.929 14.241 18.094 0 20.484-6.348 20.752-7.481zm-182.259-8.655c-8.573 2.37-9.377 3.895-9.583 4.76-.165.886.041 1.711.66 2.494 2.184 2.782 8.779 4.657 16.837 4.802v-16.034c-1.608 1.649-4.204 2.968-7.914 3.978m-2.926-16.425c-4.163-1.236-10.078-2.061-15.436-2.597l-14.446 18.795c10.654.412 17.414 1.69 21.288 4.637.618-2.329 2.762-4.019 11.005-6.306 4.307-1.195 8.429-3.009 8.429-6.945-.021-2.927-4.39-5.647-10.84-7.584"/><path fill="#000F46" d="M292.476 232.109s.495 2.205.413 2.329c0 0-.268.103-.371.041-.083-.186-.145-.227-.598-.144 0 0-6.821 1.525-6.945 1.442 0 0-.082-.268 0-.391.474-.165.474-.268.433-.495l-1.876-8.429c-.041-.226-.082-.309-.741-.33 0 0-.062-.267.02-.391l6.615-1.463c.433-.103.474-.186.557-.474 0 0 .247-.103.371-.021 0 0 .515 2.267.433 2.391 0 0-.268.062-.392 0-.082-.145-.144-.206-.577-.103 0 0-3.977.886-3.998.783 0 .02.433 2.019.433 2.328 0 .021 0 .042-.021.042.021 0 2.411-.536 2.411-.536.454-.103.474-.144.557-.433 0 0 .288-.103.391-.062 0 0 .557 2.267.474 2.391 0 0-.288.103-.391.082-.062-.144-.186-.247-.639-.165 0 0-2.123.474-2.329.516.062.288.495 2.205.474 2.493 0 .021-.021.041-.021.041.021 0 4.328-.948 4.328-.948.454-.103.474-.144.557-.453 0 0 .268-.124.391-.062zm-41.896-5.688s.247.124.288.268c0 0-1.36 2.081-1.504 2.102 0 0-.227-.124-.268-.247.083-.186.083-.309-.309-.557 0 0-5.626-3.689-5.647-3.833 0 0 .145-.247.268-.288.371.185.474.144.598-.062l4.719-7.193c.144-.206.165-.309-.206-.741 0 0 .124-.248.268-.268 0 0 2.679 1.751 2.7 1.896 0 0-.103.247-.248.288-.474-.247-.577-.206-.721 0 0 0-4.163 6.347-4.286 6.347l3.544 2.329c.371.227.454.227.804-.041m-68.44-17.682s-.144.247-.247.268c-.124-.062-.206-.103-.289-.082-.556.391-.742 1.669-2.988 2.328-2.679.825-5.173-.659-6.059-3.585-1.092-3.566.804-5.894 3.174-6.636 1.999-.557 2.823.288 3.071.02.185-.206.288-.371.412-.35l.226.021-.061.288s-.557 2.597-.66 2.679l-.227-.041s-.041-.309-.288-.577c-.371-.392-1.216-.515-1.896-.309-.845.247-2.72.968-1.71 4.245.535 1.566 1.607 2.947 3.647 2.411.598-.185 1.154-.618 1.402-1.092 0 0 .247-.515-.042-1.133 0 0 .124-.207.248-.207zm-59.908 18.424c-.804-.845-1.937-1.319-3.215-1.36-1.298-.021-2.432.391-3.276 1.195-.99.927-1.546 2.349-1.587 3.977-.083 3.174 1.772 5.338 4.616 5.42 1.298.021 2.432-.371 3.277-1.195.989-.927 1.545-2.349 1.586-3.998.021-1.607-.474-3.071-1.401-4.039m-.762 3.998c-.021 1.257-.351 2.226-.948 2.803-.433.432-1.031.638-1.731.618-1.67-.041-2.556-1.298-2.515-3.524.021-1.278.371-2.226.969-2.803.433-.412 1.01-.618 1.71-.598.701.021 1.278.248 1.69.681.577.597.866 1.566.825 2.823m156.127-4.864-4.245-.02c-.103.103-.124.371-.124.371.413.144.474.247.454.515l-.021 8.614c0 .268-.041.33-.391.392l-.083.371c.103.103 3.978.123 3.978.123 1.689 0 2.988-.433 3.853-1.298.886-.866 1.319-2.164 1.319-3.874.021-3.215-1.751-5.173-4.74-5.194m2.618 5.214c-.021 2.535-.825 3.339-3.38 3.339h-1.113c.103-.021.124-6.142.144-6.698.165 0 1.01.021 1.01.021 2.535 0 3.359.824 3.359 3.318v.02zm-70.336-33.406s.845.495.968.536c.124.041.268-.041.392-.144l.309.247s-1.752 2.246-1.896 2.267c0 0-.247-.144-.309-.247 0 0 .041-.268.062-.33.103-.495-.845-1.175-2.267-1.339-.536-.083-.948 0-1.237.226-.288.206-.35.454-.371.701-.082.783.928 1.154 2.102 1.566 1.711.618 3.834 1.36 3.545 3.813-.103.783-.515 1.483-1.154 1.999-.659.515-1.855 1.092-3.854.803 0 0-1.957-.35-3.4-1.319 0 0-.041-.041-.433.227l-.268-.206.062-.082s1.484-2.288 1.628-2.329l.268.144s-.021.186-.021.247c-.082.742 1.67 1.34 2.494 1.443.969.124 1.649.021 2.04-.289.186-.164.371-.453.433-.844.124-.845-.989-1.237-2.226-1.69-1.648-.598-3.689-1.319-3.421-3.483.186-1.422 1.402-2.968 4.204-2.617a6.8 6.8 0 0 1 2.35.7m16.94 5.111c-.145.062-.248.309-.248.309.33.289.31.351.289.392l-.556.639-5.977 6.058s-.165.165-.35.186a2 2 0 0 1-.371.041l-.144.33 2.658 1.236.144-.329a.35.35 0 0 1-.123-.124c-.042-.062-.042-.124-.021-.206.041-.062.144-.227.144-.227s1.175-1.257 1.216-1.339c.083.062 3.091 1.442 3.091 1.463-.02.144-.226 1.772-.226 1.772s-.041.186-.062.248a.26.26 0 0 1-.165.123c-.082 0-.144 0-.185-.02l-.145.329 2.659 1.237.144-.33c-.082-.103-.165-.206-.206-.309-.103-.144-.062-.392-.062-.392l.742-8.47.103-.783c.021-.062.082-.185.371-.082.124-.062.247-.309.247-.309 0-.145-2.967-1.443-2.967-1.443m-.021 6.821-2.226-1.03c.165-.185 2.412-2.658 2.721-2.988 0 0-.474 3.915-.495 4.018m31.366 11.294c-.144.041-.248.288-.248.288.31.309.289.371.268.392l-.577.618s-6.182 5.832-6.182 5.853c0 0-.165.165-.35.185-.124.021-.248.021-.371.021l-.165.309 2.617 1.319.165-.309a.35.35 0 0 1-.124-.124c-.041-.062-.041-.123 0-.206.041-.062.165-.206.165-.206s1.216-1.216 1.278-1.298c.082.062 3.029 1.545 3.05 1.566-.021.144-.289 1.772-.289 1.772s-.041.186-.082.247c-.041.062-.083.104-.165.104s-.144 0-.186-.021l-.164.309 2.617 1.319.165-.309a7 7 0 0 1-.206-.33c-.083-.144-.062-.391-.062-.391l1.03-8.45.145-.783c.02-.062.082-.185.37-.062.124-.041.248-.309.248-.309-.041-.103-2.947-1.504-2.947-1.504m-.268 6.821s-1.875-.948-2.185-1.113c.165-.185 2.515-2.576 2.824-2.906-.021.021-.619 3.916-.639 4.019m-56.528-22.916s.082 2.267-.021 2.37c0 0-.289.062-.392-.021-.041-.185-.103-.247-.556-.247 0 0-6.986.226-7.089.123 0 0-.021-.288.062-.391.494-.083.515-.165.515-.412l-.268-8.635c0-.227-.021-.33-.68-.474 0 0 0-.268.103-.371l6.78-.206c.453-.021.515-.103.639-.371 0 0 .268-.041.371.062 0 0 .082 2.328-.021 2.432 0 0-.268.02-.371-.062-.041-.165-.103-.227-.556-.206 0 0-4.06.123-4.081.02 0 .021.062 2.061 0 2.37 0 .021-.02.041-.02.041l2.473-.082c.453-.021.494-.041.618-.33 0 0 .309-.062.392 0 0 0 .123 2.329.02 2.432 0 0-.309.041-.391 0-.042-.165-.124-.289-.598-.268 0 0-2.185.062-2.37.062.021.288.082 2.246.021 2.555 0 .021-.021.021-.021.021l4.431-.144c.453-.021.494-.062.618-.33 0 0 .289-.083.392.021zm-71.346 19.701s.927.206 1.072.206c.123 0 .247-.123.309-.268l.371.124s-.928 2.617-1.051 2.7c0 0-.289-.062-.371-.145 0 0-.041-.267-.041-.329-.062-.474-1.155-.825-2.515-.557-.515.103-.865.309-1.071.577s-.186.536-.124.763c.165.762 1.195.783 2.432.804 1.772.041 3.977.082 4.451 2.431a3 3 0 0 1-.453 2.205c-.454.68-1.381 1.587-3.318 1.917 0 0-1.917.268-3.545-.165 0 0-.062-.021-.329.33l-.31-.103.021-.103s.659-2.576.783-2.659l.289.062s.041.186.061.247c.145.722 1.958.722 2.762.557.927-.186 1.525-.495 1.813-.907.124-.206.207-.536.145-.927-.145-.825-1.278-.845-2.597-.886-1.71-.042-3.812-.083-4.245-2.185-.268-1.381.371-3.174 3.091-3.709.845-.083 1.649-.103 2.37.02m22.257-2.04s1.236 1.896 1.216 2.04c0 0-.206.206-.33.186-.144-.145-.227-.165-.598.082 0 0-5.852 3.813-5.997 3.792 0 0-.164-.227-.144-.371.392-.33.35-.412.227-.618l-4.719-7.234c-.124-.206-.207-.268-.825-.061 0 0-.144-.227-.123-.371l5.667-3.689c.371-.248.391-.351.35-.639 0 0 .206-.186.35-.144 0 0 1.278 1.937 1.237 2.081 0 0-.227.165-.35.144-.124-.123-.206-.144-.598.103 0 0-3.4 2.226-3.462 2.144 0 .02 1.113 1.731 1.216 2.019v.041c.02 0 2.081-1.339 2.081-1.339.392-.247.392-.289.35-.598 0 0 .227-.206.33-.206 0 0 1.319 1.917 1.278 2.061 0 0-.247.206-.33.206-.123-.124-.268-.165-.639.082 0 0-1.834 1.175-1.999 1.299.165.247 1.237 1.896 1.34 2.164v.041c.02 0 3.709-2.411 3.709-2.411.392-.248.392-.309.371-.619 0 0 .206-.206.351-.185zm8.47-14.859c-.041.145.082.371.082.371.433-.082.474-.02.474 0l.186.825 1.195 8.429s.041.247-.041.391a9 9 0 0 1-.206.33l.165.309 2.596-1.381-.165-.309c-.041.021-.103.021-.165.021-.082 0-.144-.042-.164-.103-.042-.062-.083-.248-.083-.248s-.288-1.69-.33-1.793c.083-.02 3.03-1.566 3.03-1.586.103.123 1.278 1.257 1.278 1.257s.123.144.164.206a.18.18 0 0 1 0 .206.34.34 0 0 1-.123.123l.165.31 2.596-1.381-.165-.309c-.144 0-.268 0-.371-.021-.164-.02-.35-.185-.35-.185l-6.285-5.729-.557-.557c-.041-.062-.103-.185.165-.35.041-.144-.103-.392-.103-.392-.165.021-2.988 1.566-2.988 1.566m5.42 4.184s-1.855.969-2.164 1.154a855 855 0 0 0-.742-3.977zm53.911-2.246s-.247.123-.351.082c-.061-.124-.103-.206-.206-.227-.68.021-1.545.969-3.771.289-2.679-.783-3.957-3.4-3.091-6.347 1.051-3.586 3.936-4.472 6.306-3.772 1.978.639 2.205 1.793 2.555 1.711.268-.062.454-.145.536-.062l.186.144-.206.206s-1.896 1.876-2.02 1.876l-.165-.145s.144-.268.083-.639c-.103-.535-.742-1.092-1.422-1.298-.845-.247-2.803-.7-3.772 2.617-.412 1.608-.268 3.339 1.711 4.04.597.164 1.298.123 1.772-.145 0 0 .495-.288.598-.968 0 0 .226-.103.309-.041zm-109.409 14.549-4.616-.886c-.124.082-.103.35-.103.35.432.248.453.351.391.598l-1.648 8.47c-.042.247-.124.35-.495.33-.124.082-.144.412-.144.412.02.02 3.091.597 3.091.597l.062-.35c-.351-.185-.412-.289-.412-.453 0-.042 0-.083.02-.124 0 0 .66-3.339.66-3.38 0 .103 2.019.495 2.019.495 2.597.515 3.833-.886 4.122-2.35.309-1.463-.33-3.214-2.947-3.709m-1.154 4.183s-1.669-.329-1.69-.329c.103-.309.412-2.164.474-2.453.185.042 1.69.33 1.69.33 1.257.268 1.71.68 1.545 1.587-.185.907-.721 1.113-2.019.865m52.18-10.098c-.371.062-.515 0-1.113-.35l-2.947-1.669c1.175-1.278 1.01-2.7.33-3.73-.825-1.257-2.473-2.061-4.72-.618l-3.936 2.555c-.02.144.186.33.186.33.474-.124.556-.062.7.144l4.699 7.233c.144.207.165.351-.144.577-.021.145.185.392.185.392.042 0 2.638-1.71 2.638-1.71l-.227-.371c-.37.103-.494.082-.618-.042-.02-.041-.062-.061-.082-.103 0 0-1.773-2.72-1.793-2.761 0 0 .556-.351 1.03-.66.495.33 3.421 1.999 3.462 2.02.083.062-.123.268-.185.309-.021.062.227.392.227.392.062.02 2.534-1.628 2.534-1.628-.041-.062-.226-.31-.226-.31m-9.171-3.688a219 219 0 0 0 1.443-.948c1.092-.68 1.69-.701 2.205.061.494.784.268 1.319-.845 2.02 0 0-1.422.927-1.443.948-.144-.268-1.216-1.834-1.36-2.081m39.362-7.502c-.371-.082-.474-.206-.907-.762l-2.081-2.679c1.566-.722 1.957-2.102 1.751-3.298-.268-1.463-1.483-2.864-4.101-2.39l-4.616.845c-.082.123.041.371.041.371.495.082.536.165.598.412l1.546 8.49c.041.248.02.371-.351.474-.082.124 0 .433 0 .433.041.021 3.091-.556 3.091-.556l-.082-.433c-.392-.062-.495-.124-.556-.268-.021-.041-.021-.082-.042-.124 0 0-.577-3.194-.597-3.235 0 0 .639-.103 1.216-.206.329.494 2.39 3.174 2.411 3.194.062.083-.206.186-.289.206-.041.041.062.433.062.433.041.041 2.968-.515 2.968-.515.02-.103-.062-.392-.062-.392m-7.048-6.945c.185-.041 1.69-.309 1.69-.309 1.257-.206 1.834 0 1.999.907s-.268 1.319-1.567 1.546c0 0-1.669.309-1.689.309 0-.309-.371-2.164-.433-2.453m-43.648 30.377c.103.247.185.288.618.247l.165.33-.103.041s-2.391 1.092-2.618 1.175c0 0-.164-.289-.144-.371.062-.042.186-.186.186-.289a.5.5 0 0 0-.083-.247s-3.05-6.595-3.173-6.966l-2.102.99c-.33.164-.413.247-.413.535 0 .042 0 .103.021.165 0 0-.227.186-.371.124 0 0-1.051-2.246-1.01-2.391 0 0 .206-.144.33-.123.124.165.206.206.618 0l5.977-2.721c.391-.185.474-.206.474-.535 0 0 .164-.124.309-.165 0 0 1.133 2.308 1.092 2.431 0 0-.227.165-.35.124-.165-.247-.268-.412-.66-.227 0 0-1.875.887-1.958.887.062.061 3.195 6.986 3.195 6.986m123.772 4.492c-2.576-.721-3.524-2.37-2.864-4.863l1.504-5.482c.062-.247-.061-.453-.391-.598 0-.144.082-.391.082-.391s2.102.556 3.03.845c0 0-.062.288-.165.371-.33-.042-.412.082-.474.329l-1.505 5.523c-.165.619-.123 1.175.124 1.608q.34.619 1.175.865c.556.145 1.051.083 1.463-.123.433-.248.762-.701.948-1.319l1.587-5.503c.062-.247.062-.391-.227-.535-.062-.124.041-.413.041-.413.928.248 3.03.845 3.03.845s-.042.268-.124.371c-.35-.041-.577.083-.639.309l-1.587 5.462c-.762 2.514-2.452 3.421-5.008 2.699m-31.427-16.857c-.041-.041-.103-.062-.144-.103 0 0 1.257-6.718 1.587-7.852.02-.062.02-.124.041-.185-.433.7-3.689 5.832-3.689 5.832a.24.24 0 0 0-.062.165c0 .082.062.206.247.412l-.185.309s-2.246-1.422-2.391-1.525c0 0 .145-.268.227-.289.186.103.392 0 .495-.144l4.74-7.481c.082-.144.103-.247-.124-.536 0 0 .082-.267.247-.309 0 0 3.03 1.896 3.03 1.938 0 0-.145.226-.248.267-.206-.041-.309.103-.35.145-.103.165-1.175 5.832-1.195 5.873.041-.021 4.698-3.421 4.822-3.565.041-.041.103-.206-.021-.371 0-.124.145-.35.145-.35.041-.021 3.029 1.916 3.029 1.916.041.144-.165.35-.165.35-.35-.082-.453-.02-.536.124l-4.74 7.481a.385.385 0 0 0 .083.515c.021.082-.165.33-.165.33-.165-.083-2.411-1.525-2.411-1.525l.206-.309c.268.082.412.082.474.041.062-.021.082-.062.124-.124 0 0 3.256-5.131 3.709-5.832a1 1 0 0 1-.165.124c-.865.783-6.43 4.781-6.43 4.781-.082-.041-.144-.083-.185-.103"/><path fill="#fff" d="M50.866 300.981h299.746v1.71H50.866zm37.466-38.331h-.825l-2.844-.083c-.165 0-.68 0-.68.454 0 .226.186.391.433.391l.927.083c.763.165.99.474 1.051 1.422l.062 6.1v.597l-11.973-.061.041-.557.062-6.1c.062-.969.268-1.319.886-1.422l.66-.082c.247 0 .453-.165.453-.392 0-.288-.227-.453-.68-.453l-2.308.062h-.845l-2.824-.083c-.453 0-.68.144-.68.453 0 .227.186.392.433.392l.907.082c.783.165 1.01.474 1.05 1.422l.063 6.121v4.987c0 2.659 0 4.946-.144 6.121-.124.845-.248 1.298-.66 1.381l-.804.103c-.309 0-.453.185-.453.391 0 .433.495.433.68.433l2.308-.062h.804l3.153.083c.598 0 .66-.31.66-.433 0-.186-.145-.392-.433-.392l-1.257-.103c-.66-.103-.825-.536-.928-1.38-.144-1.175-.144-3.463-.144-6.121v-2.968l11.994.041-.062 2.927c0 2.658 0 4.946-.144 6.121-.103.824-.248 1.298-.66 1.38l-.803.103c-.31 0-.454.206-.454.392 0 .433.495.433.68.433l2.329-.062h.783l3.174.082c.618 0 .68-.309.68-.433 0-.185-.144-.391-.454-.391l-1.257-.103c-.68-.103-.845-.536-.927-1.381-.144-1.175-.144-3.462-.144-6.121v-4.987l.061-6.1c.062-.968.269-1.319.866-1.422l.66-.082c.267 0 .453-.165.453-.392 0-.453-.495-.453-.68-.453zm18.176-.144c-.577.123-1.175.144-1.175.144l-6.491.02-.392-.02-2.823-.062c-.165 0-.68 0-.68.433 0 .226.185.371.433.391l.906.083c.742.062.99.474 1.051 1.422l.062 6.1v4.987c0 2.658 0 4.946-.144 6.121-.124.844-.247 1.298-.66 1.38-.123.021-.803.103-.803.103-.33.021-.433.186-.433.392 0 .433.495.433.66.433l2.307-.062 1.546.02 5.935.124c1.113 0 1.505 0 1.731-.886.145-.598.371-2.555.371-2.803 0-.206 0-.639-.391-.639-.351 0-.412.392-.454.598-.185 1.092-.494 1.607-1.154 1.875-.7.289-1.916.289-2.637.289-2.741 0-3.009-.35-3.071-2.123v-7.336c0 .02 4.018.165 4.018.165.969.103 1.237.494 1.278.824.062.33.103.886.103.886.041.309.165.474.412.474.413 0 .413-.515.413-.742l.103-1.793.226-1.607c0-.412-.288-.454-.35-.433-.144 0-.371.289-.577.412-.453.268-.453.289-1.216.35l-4.493.062.042-7.893c.329-.061 3.359-.041 3.812.021 1.546.165 1.711.515 1.834.845l.145.927c0 .516.309.577.453.577s.33-.082.412-.494l.103-1.443.021-.453.165-.969.061-.371c0-.433-.247-.474-.329-.474s-.083.103-.33.145m38.414 1.318-.021 16.26c0 2.535-.206 3.318-.701 3.401-.494.082-1.092.165-1.092.165-.33.02-.453.185-.453.391 0 .433.474.433.68.433l2.267-.062h.886l2.597.062c.206 0 .721 0 .721-.433 0-.185-.083-.35-.454-.391 0 0-.824-.083-1.36-.165-.536-.083-.886-.701-.948-3.092 0 0-.309-11.932-.35-13.003.701.783 7.007 7.707 7.007 7.707 3.07 3.318 7.11 7.419 7.419 7.708 1.628 1.607 1.896 1.875 2.225 1.875.433 0 .474-.33.474-2.226l.042-16.61c0-1.772.144-2.164.886-2.329l.639-.082c.371-.041.535-.227.535-.412 0-.412-.494-.412-.721-.412l-1.896.061h-1.113l-2.349-.061c-.268 0-.783 0-.783.412 0 .268.103.391.453.412l1.34.144c.68.103.907.557.927 2.494 0 0 .247 11.19.309 13.848-.556-.597-2.122-2.287-2.122-2.287l-4.307-4.699-9.274-9.995c-.392-.453-.66-.7-.907-.7-.515-.042-.556.597-.556 1.586m27.862-1.174h-.886l-2.432-.062c-.165 0-.659 0-.659.453 0 .227.144.371.432.392l.825.103c.432.062.742.391.803 1.401l.062 6.1v4.987c0 2.659 0 4.946-.144 6.121-.124.866-.247 1.298-.659 1.381l-.804.103c-.371.041-.454.206-.454.391 0 .433.516.433.68.433l2.329-.062h.783l3.174.083c.618 0 .659-.309.659-.433 0-.185-.123-.371-.432-.391l-1.237-.104c-.68-.103-.845-.535-.927-1.38-.144-1.175-.144-3.462-.144-6.121v-4.987l.061-6.1c.062-.969.268-1.319.866-1.422l.68-.083c.289-.02.453-.164.453-.391 0-.453-.515-.453-.68-.453zm26.131 0h-1.071l-2.123-.062c-.289 0-.845 0-.845.433 0 .144.062.35.536.391l1.01.103c.226.042.267.268.226.454l-.247 1.009c-.577 1.876-4.08 11.067-5.853 15.23-.35-.948-5.255-14.014-5.255-14.014-.412-1.051-.762-1.957-.762-2.267 0-.144.041-.329.247-.37l.989-.124c.495-.041.495-.289.495-.412 0-.412-.619-.412-.989-.412l-2.061.061h-1.278l-2.617-.061c-.392 0-.948 0-.948.412 0 .247.123.391.453.412l1.01.103c.845.144 1.278.495 1.896 2.061l7.007 17.558c.536 1.319.68 1.731 1.154 1.731.35 0 .474-.289.886-1.216l.495-1.071 3.503-8.223 1.669-4.06 1.669-4.019c.742-1.875 1.155-2.349 1.484-2.576.474-.309 1.051-.309 1.237-.309.474 0 .556-.268.556-.412 0-.268-.227-.412-.701-.412zm43.236 4.863c0 1.937.639 3.751 3.771 6.327l1.278 1.051c2.514 2.061 3.194 3.112 3.194 4.946 0 1.752-1.318 3.545-3.833 3.545-1.03 0-3.482-.268-3.998-2.721l-.082-1.009c0-.165 0-.536-.412-.536-.371 0-.412.412-.454.639l-.02.288-.124 2.762c0 .762.021 1.009.557 1.277 1.092.536 2.369.783 3.894.783 1.732 0 3.257-.432 4.411-1.236 1.854-1.319 2.514-3.38 2.514-4.884 0-2.226-.701-4.06-4.225-6.842l-.783-.618c-2.72-2.226-3.38-3.133-3.38-4.596 0-1.834 1.319-3.071 3.277-3.071 2.349 0 3.132.969 3.359 1.402.144.288.33 1.009.35 1.339.021.206.062.577.433.577.412 0 .412-.577.412-.865l.103-2.782v-.206c0-.371-.35-.413-.494-.413s-.948-.144-.948-.144c-.804-.206-1.669-.288-2.679-.288-3.668-.042-6.121 2.102-6.121 5.275m60.836-4.863h-1.196l-1.422-.062c-.577 0-.68.247-.68.391 0 .289.289.392.557.474.144.062.329.083.329.598 0 .412-.144.866-.453 1.34-.474.803-3.668 6.285-4.534 7.996-.948-1.567-4.595-7.852-5.008-8.615-.206-.391-.329-.7-.329-1.009 0-.124.082-.227.247-.33l.144-.062c.186-.082.392-.144.392-.392 0-.267-.206-.412-.577-.412l-1.999.062h-1.051l-2.143-.062c-.557 0-.598.351-.598.412 0 .248.206.413.494.413.207 0 .701.144 1.093.412.556.371 1.257 1.133 1.854 2.04 1.031 1.504 4.802 7.728 4.988 8.14.371.825.638 1.422.638 2.885v2.432l-.082 2.824c-.041.556-.185 1.257-.701 1.36l-.803.103c-.371.041-.454.185-.454.391 0 .433.495.433.66.433l2.328-.062h.784l3.153.062c.597 0 .659-.309.659-.433 0-.185-.144-.391-.433-.391l-1.257-.103c-.618-.083-.907-.495-.968-1.36l-.083-2.824v-2.432c0-.906 0-1.772.412-2.761.474-1.154 4.431-7.811 5.379-8.965.639-.783.927-1.092 1.463-1.401.392-.247.886-.371 1.196-.371.432 0 .577-.247.577-.453 0-.186-.145-.392-.577-.392zm10.448 10.84c0-4.369 3.091-11.314 11.396-11.314 6.801 0 11.355 4.369 11.355 10.86 0 6.842-4.843 11.829-11.52 11.829-7.728 0-11.231-5.894-11.231-11.375m3.132-.783c0 6.264 3.648 10.654 8.862 10.654 1.278 0 7.625-.453 7.625-9.521 0-7.048-4.369-10.263-8.408-10.263-4.987.021-8.079 3.504-8.079 9.13m33.386-10.078c-.103 0-.33.021-.33.021l-6.966.02-.371-.02-2.823-.062c-.165 0-.68 0-.68.453 0 .227.144.371.453.392l.907.082c.763.103 1.01.474 1.051 1.422l.062 6.121v4.987c0 2.659 0 4.946-.144 6.121-.124.845-.248 1.298-.66 1.38l-.803.104c-.371.041-.433.185-.433.391 0 .433.515.433.659.433l2.308-.062h.804l3.153.082c.598 0 .68-.309.68-.432 0-.186-.103-.371-.453-.392l-1.237-.103c-.68-.082-.845-.536-.927-1.36-.144-1.175-.144-3.483-.144-6.121v-2.411c1.051-.041 3.606-.02 4.245.041.762.103 1.195.557 1.298.887s.145.721.145.968c0 .268.164.433.412.433.412 0 .412-.495.412-.763l.124-1.875.226-1.607c.041-.392-.268-.433-.35-.433-.206 0-.33.165-.433.309-.247.33-.494.433-1.195.474l-1.257.021-3.627.02.02-7.872c.042-.103 4.39-.021 4.39-.021 1.01.021 1.648.433 1.752.783.082.268.226.99.226.99.103.556.351.556.412.556.145 0 .371-.041.433-.474 0 0 .083-1.546.144-1.896.021-.186.165-.969.165-.969l.062-.371c.041-.309-.165-.494-.391-.474-.248-.02-.845.186-1.319.227m-210.802.021h-.886l-2.617-.062c-.165 0-.659 0-.659.433 0 .226.185.391.432.391l.907.083c.845.103 1.01.536 1.051 1.422l.062 6.12v3.545c0 3.4-.474 5.42-1.587 6.821-1.01 1.216-2.658 1.958-4.286 1.958-1.608 0-2.803-.247-4.143-1.504-1.009-.969-2.061-2.535-2.061-6.842v-3.978l.062-6.12c.062-.99.268-1.34.866-1.422l.68-.083c.288-.02.453-.165.453-.391 0-.433-.494-.433-.68-.433l-2.102.062h-1.298l-2.679-.062c-.165 0-.68 0-.68.433 0 .226.185.391.453.391l.907.083c.742.082.989.474 1.051 1.422l.062 6.12v4.143c0 4.595 1.36 6.491 2.535 7.625 1.916 1.813 4.575 2.081 5.997 2.081 1.525 0 3.812-.227 5.997-2.164 2.369-2.122 2.679-5.729 2.679-8.635v-3.05l.061-6.12c.062-.969.268-1.299.866-1.422l.659-.083c.289-.02.454-.165.454-.391 0-.433-.495-.433-.66-.433zm-90.16.165c-.042.103-.66 2.741-.66 3.091s.185.474.371.474c.288 0 .412-.247.474-.433l.453-.845c.392-.598 1.01-.783 2.72-.804 0 0 3.133-.041 3.978-.061v11.787c0 2.659 0 4.946-.144 6.121-.124.845-.248 1.298-.66 1.381-.66.103-.803.103-.803.103-.31 0-.433.185-.433.391 0 .433.494.433.66.433l2.328-.062h.783l3.153.083c.598 0 .66-.309.66-.433 0-.185-.145-.391-.433-.391l-1.237-.104c-.68-.103-.845-.535-.927-1.36-.144-1.174-.144-3.482-.144-6.141v-11.788c.391 0 3.359.062 3.359.062 2.72.062 3.194.721 3.277 1.381l.02.309c.02.268.062.68.454.68.061 0 .412-.021.412-.577l.02-.907.062-2.205c0-.165 0-.577-.35-.577l-.35.062c-.392.082-1.155.227-2.474.227H52.927s-2-.103-2.205-.145-.907-.226-.907-.226l-.35-.103h-.021c-.247-.021-.35.288-.454.577m165.896-.309c-.578.123-1.175.144-1.175.144l-6.492.02-.391-.02-2.824-.062c-.164 0-.68 0-.68.433 0 .226.186.371.433.391l.907.083c.742.062.989.474 1.051 1.422l.062 6.1v4.987c0 2.658 0 4.946-.145 6.121-.123.844-.247 1.298-.659 1.38-.124.021-.804.103-.804.103-.329.021-.433.186-.433.392 0 .433.495.433.66.433l2.308-.062 1.546.02 5.935.124c1.113 0 1.504 0 1.731-.886.144-.598.371-2.555.371-2.803 0-.206 0-.639-.392-.639-.35 0-.412.392-.453.598-.186 1.092-.495 1.607-1.154 1.875-.701.289-1.917.289-2.638.289-2.741 0-3.009-.35-3.071-2.123v-7.336c0 .02 4.019.165 4.019.165.969.103 1.236.494 1.278.824.062.33.103.886.103.886.041.309.165.474.412.474.412 0 .412-.515.412-.742l.103-1.793.227-1.607c0-.412-.289-.454-.351-.433-.144 0-.37.289-.577.412-.453.268-.453.289-1.215.35l-4.493.062.041-7.893c.33-.061 3.359-.041 3.813.021 1.545.165 1.71.515 1.834.845l.144.927c0 .516.309.577.453.577s.33-.082.413-.494l.103-1.443.02-.453.165-.969.062-.371c0-.433-.247-.474-.33-.474-.082 0-.082.103-.329.145m44.328.144h-.886l-2.432-.062c-.165 0-.66 0-.66.453 0 .227.145.371.433.392l.824.103c.433.062.742.391.804 1.401l.062 6.1v4.987c0 2.659 0 4.946-.144 6.121-.124.866-.248 1.298-.66 1.381l-.803.103c-.371.041-.454.206-.454.391 0 .433.515.433.68.433l2.329-.062h.783l3.174.083c.618 0 .659-.309.659-.433 0-.185-.123-.371-.433-.391l-1.236-.104c-.68-.103-.845-.535-.927-1.38-.145-1.175-.145-3.462-.145-6.121v-4.987l.062-6.1c.062-.969.268-1.319.866-1.422l.68-.083c.288-.02.453-.164.453-.391 0-.453-.515-.453-.68-.453zm5.585.165c-.042.103-.66 2.741-.66 3.091s.186.474.371.474c.289 0 .412-.247.474-.433l.453-.845c.392-.598 1.01-.783 2.721-.804 0 0 3.132-.041 3.977-.061v11.787c0 2.659 0 4.946-.144 6.121-.124.845-.247 1.298-.66 1.381-.659.103-.803.103-.803.103-.309 0-.433.185-.433.391 0 .433.494.433.659.433l2.329-.062h.783l3.153.083c.598 0 .66-.309.66-.433 0-.185-.145-.391-.433-.391l-1.237-.104c-.68-.103-.845-.535-.927-1.36-.144-1.174-.144-3.482-.144-6.141v-11.788c.391 0 3.359.062 3.359.062 2.72.062 3.194.721 3.277 1.381l.02.309c.021.268.062.68.454.68.061 0 .412-.021.412-.577l.02-.907.062-2.205c0-.165 0-.577-.35-.577l-.35.062c-.392.082-1.155.227-2.473.227h-10.634s-1.999-.103-2.205-.145-.907-.226-.907-.226l-.35-.103h-.021c-.268-.021-.371.288-.453.577m-25.081 21.205c0 .433-.535.433-.906.433h-1.072c-1.587 0-2.349-.144-3.132-.556-1.155-.618-2.102-1.855-3.524-3.73 0 0-3.401-4.761-3.524-4.781 0 0-3.627-.062-3.627-.042v.68c0 2.659 0 4.946.144 6.142.082.845.247 1.277.927 1.36l1.237.103c.371.021.453.206.453.391 0 .124-.062.433-.68.433l-3.153-.082h-.453l-2.556.082c-.165 0-.68 0-.68-.433 0-.206.082-.35.433-.391l.804-.103c.412-.083.535-.557.659-1.381.144-1.175.144-3.462.144-6.121v-4.987l-.062-6.12c-.061-.948-.309-1.34-1.051-1.422l-.906-.083c-.268-.02-.454-.165-.454-.391 0-.433.495-.433.68-.433l2.824.062 1.319-.021 2.411-.062c1.751 0 3.73.145 5.317 1.278.762.556 2.04 2.02 2.04 4.039 0 2.329-1.072 4.41-3.359 6.574.165.206.556.701.556.701 1.999 2.576 3.73 4.822 5.235 6.388 1.442 1.525 2.596 1.855 3.338 1.979l.144.02c.268.062.474.268.474.474m-9.17-14.631c0-3.421-1.752-5.462-4.699-5.462-.886 0-1.607.104-1.834.165-.062.021-.082.062-.082.145v9.273c0 .062 0 .103.103.165.329.206 1.525.412 2.864.412.598 0 1.381-.062 1.999-.494 1.051-.722 1.649-2.288 1.649-4.204m-148.606 50.16s-10.716 22.525-11.705 24.565c-.186-.392-11.747-24.256-11.747-24.256-.536-1.092-.824-1.401-1.257-1.401-.289 0-.66.206-.845 1.216l-4.287 28.274c-.226 1.587-.618 3.133-1.69 3.339l-1.277.123c-.33.021-.804 0-.804.412 0 .598.639.598.886.598l2.659-.082 1.628-.062 1.38.041 3.174.082c.556 0 1.154-.041 1.154-.597 0-.268-.227-.351-.762-.412l-1.793-.227c-.825-.185-1.216-.618-1.216-1.278l.123-2.019s1.979-15.106 2.226-17.043c.35.577 2.102 4.307 2.102 4.307l2.39 5.131c.516 1.196 3.875 7.728 4.988 9.851l.124.247c.66 1.237 1.05 1.979 1.483 1.979.474 0 .701-.433 1.71-2.494l9.46-19.681c0 .165 2.576 19.042 2.576 19.042.062.392.082.701.082.948 0 .515-.102.763-.226.804-.289.124-.557.288-.557.577 0 .391.454.515 1.36.577 1.711.124 7.687.268 8.82.268.805 0 1.237-.206 1.237-.598 0-.412-.535-.412-.803-.412-.598 0-1.422-.041-2.659-.433-1.277-.391-1.67-1.69-2.04-4.286l-3.957-26.791c-.144-.968-.433-1.442-.886-1.442-.453.02-.7.432-1.051 1.133m50.552-.082-2.288.061-2.205-.041-3.73-.082c-.515 0-1.051.041-1.051.494 0 .495.433.454.845.495l1.402.124c1.401.123 1.71 1.009 1.772 2.37.082 1.38.082 2.576.082 9.191v7.625c0 3.977 0 7.398-.226 9.212-.186 1.401-.433 2.143-1.175 2.287l-1.546.165c-.412.041-.803.041-.803.453 0 .536.741.536.968.536l2.988-.082 2.473-.041 6.76.164 5.853.083c2.287 0 2.555-.227 2.843-1.257.351-1.278.66-4.513.66-5.008 0-.412 0-.845-.453-.845-.516 0-.557.474-.598.742-.082.804-.598 1.999-1.092 2.535-1.01 1.092-2.556 1.174-4.987 1.174-3.463 0-4.493-.329-5.173-.927-.866-.742-.866-3.771-.866-9.232v-7.625c0-6.616 0-7.811.083-9.192.082-1.587.474-2.184 1.525-2.37l1.669-.123c.453 0 .886-.062.886-.495s-.494-.494-1.01-.494zm27.636 30.376c1.154.474 2.143.515 3.132.515.866 0 5.131-.268 5.131-5.44 0-1.69-.412-5.915-4.162-8.553-.907-.659-1.896-.927-3.545-1.01l-1.855-.041c-.082 0-.144.021-.144.206v10.284c0 2.823.124 3.503 1.443 4.039m.267-28.46-1.401.083c-.227.061-.309.164-.309.638v10.717c0 .309.082.35.227.371l2.019.123c1.278 0 2.288-.144 3.05-.803 1.134-.928 1.731-2.494 1.731-4.514 0-2.555-1.442-6.615-5.317-6.615m.742-1.999c8.676 0 9.336 5.07 9.336 6.615 0 3.339-1.731 5.441-4.328 7.543 3.792 1.36 7.79 4.493 7.79 9.397 0 4.761-3.606 9.563-11.685 9.563l-1.36-.062-1.69-.083-3.235-.123-2.473.041-2.988.082c-.248 0-.969 0-.969-.536 0-.412.371-.432.804-.453l1.545-.165c.804-.165 1.01-1.133 1.175-2.287.206-1.814.206-5.255.206-9.212v-7.625c0-6.615 0-7.79-.082-9.191-.083-1.361-.248-2.226-1.793-2.37l-1.67-.124c-.494-.041-.845 0-.845-.495 0-.453.557-.494 1.051-.494l4.225.082 1.669.041 3.133-.082zm23.432 15.168c0 9.459 5.42 16.074 13.21 16.074 2.988 0 9.953-1.36 9.953-13.91 0-9.212-5.172-15.621-12.591-15.621-3.957-.021-10.572 1.731-10.572 13.457m-6.183 1.339c0-8.243 5.647-17.105 18.012-17.105 10.881 0 17.62 6.265 17.62 16.322 0 10.531-7.419 17.888-18.053 17.888-12.076 0-17.579-8.861-17.579-17.105m67.822-16.404-6.244-.082c-.495 0-1.01.041-1.01.494 0 .495 1.36.516 2.37.619 1.236.123 1.71 1.009 1.793 2.37.082 1.38.082 2.576.082 9.191v5.42c0 4.637-.185 8.387-2.473 10.675-2.081 2.081-4.822 2.308-5.914 2.308-1.505 0-3.463-.206-5.358-1.752-1.732-1.422-3.339-3.689-3.339-10.592v-6.08c0-6.615 0-7.79.082-9.191.103-1.587.474-2.185 1.525-2.37l1.237-.124c.35-.041.804 0 .804-.494 0-.454-.557-.495-1.051-.495l-3.174.083-2.164.061-2.308-.061-4.019-.083c-.515 0-1.051.041-1.051.495 0 .494.454.474.845.494 0 0 .392.021 1.67.124 1.277.103 1.71 1.01 1.772 2.37.082 1.381.082 2.576.082 9.191v6.327c0 5.502 1.237 9.171 3.895 11.561 3.339 3.029 7.79 3.03 9.686 3.03 2.535 0 5.832-.351 9.088-3.154 3.648-3.132 4.163-8.16 4.163-13.127v-4.637c0-6.615 0-7.79.083-9.191.082-1.587.474-2.185 1.525-2.37l1.236-.124c.515-.041.886-.061.886-.494 0-.454-.515-.495-1.01-.495zm18.115 16.693c.803.268 2.019.433 3.256.433 1.731 0 2.267-.186 3.008-.722.948-.68 2.515-2.431 2.515-6.409 0-6.182-4.101-7.831-6.533-7.831-1.175 0-1.875.062-2.267.165-.247.062-.309.185-.309.494v13.19c.02.453.103.577.33.68m3.091-16.775c2.617 0 5.605.226 8.037 1.875 1.03.701 2.988 2.865 2.988 6.018 0 3.565-1.71 6.471-5.688 9.727.103.144 1.464 1.834 1.464 1.834 3.173 3.998 5.687 7.151 7.892 9.48 2.35 2.431 4.04 2.782 4.74 2.926l.103.021c.495.103.619.371.619.556 0 .536-.639.536-.928.536h-2.967c-2.37 0-3.524-.206-4.699-.845-1.834-.969-3.442-2.926-5.976-6.409l-2.205-3.112-2.082-2.865c-.185-.226-.391-.268-.701-.268l-3.771-.082c-.185 0-.247.062-.247.247v.598c0 3.998 0 7.46.206 9.274.144 1.36.433 2.143 1.607 2.287l2.102.165c.557 0 .619.309.619.453 0 .536-.742.536-.969.536l-4.967-.103-1.401-.041-1.752.041-3.524.083c-.247 0-.968 0-.968-.536 0-.412.412-.412.804-.454l1.545-.164c.825-.165 1.01-1.134 1.175-2.288.206-1.813.206-5.255.206-9.212v-7.625c0-6.615 0-7.81-.082-9.191-.083-1.381-.371-2.205-1.793-2.37l-1.67-.124c-.268 0-.845 0-.845-.494 0-.454.557-.495 1.051-.495l4.204.083 1.732.041 3.194-.062zm27.12.824-.391 25.678c-.042 3.73-.227 4.946-1.278 5.276a5.4 5.4 0 0 1-1.587.206c-.227 0-.804 0-.804.453 0 .536.619.536 1.051.536l3.627-.103h1.938l3.895.082c.35 0 1.112 0 1.112-.536 0-.453-.597-.453-.845-.453-.638 0-1.195-.041-1.937-.309-.927-.33-1.36-1.731-1.442-4.719 0 0-.474-17.62-.474-18.012.247.206.886.907.886.907 1.834 1.999 5.626 6.162 9.377 9.912l5.749 5.75 7.048 6.986c.495.495 1.031.989 1.546.989.598 0 .659-.721.659-1.442l.474-27.368c.042-2.432.124-3.38 1.237-3.586l1.278-.123c.68-.042.886-.165.886-.495 0-.494-.66-.494-1.113-.494l-3.174.103-.783.041-1.525-.041-3.441-.083c-.516 0-1.237 0-1.237.495 0 .433.433.494.804.494.597 0 1.339 0 1.978.248.907.391 1.36 1.051 1.402 3.812 0 0 .412 18.341.432 19.496l-.103-.124c0-.041-3.05-3.215-3.05-3.215l-6.43-6.656c-6.594-6.554-13.374-13.849-13.436-13.911l-.412-.433c-.515-.556-.845-.927-1.278-.927-.577 0-.639.886-.639 1.566m53.149-.742c-.598.041-7.811.041-10.82.041l-2.205-.061-.515-.021-3.524-.041c-.515 0-1.071.041-1.071.494 0 .495.535.495.844.495l1.67.124c1.525.185 1.71 1.009 1.793 2.37.082 1.38.082 2.576.082 9.191v7.625c0 3.977 0 7.419-.227 9.232-.164 1.154-.35 2.123-1.174 2.288l-1.546.165c-.474.041-.804.041-.804.453 0 .536.722.536.969.536l2.988-.083 2.473-.041 4.513.124 1.257.041 6.245.103c1.628 0 2.122 0 2.452-1.216.227-.886.577-3.812.577-4.843 0-.432 0-.886-.453-.886-.412 0-.515.309-.577.742-.309 1.793-.825 2.638-1.896 3.133-1.113.515-2.947.515-4.039.515-4.493 0-5.008-.722-5.091-3.545v-10.139c0-.33.083-.33.145-.33.968 0 5.316.041 6.141.124 1.381.144 2.102.639 2.329 1.607l.144 1.154.02.392c0 .309.165.494.495.494.495 0 .495-.597.495-.927l.082-1.401.082-1.505.289-2.699.062-.474c0-.289-.144-.454-.412-.454-.248 0-.433.206-.722.536-.412.474-1.051.598-2.06.68-.639.062-3.092.083-6.925.083-.144 0-.185-.042-.185-.371v-10.964c0-.33.103-.33.185-.33.845 0 5.4.083 6.141.165 2.185.268 2.535.783 2.824 1.505.247.577.247 1.422.247 1.525 0 .206 0 .721.495.721.432 0 .515-.433.535-.557l.165-1.978.062-.886.289-2.391.061-.432c.042-.392-.123-.495-.37-.495-.351-.021-1.732.392-2.535.412m-233.161 0c-.598.041-7.811.041-10.82.041l-2.205-.061-.515-.021-3.524-.041c-.515 0-1.072.041-1.072.494 0 .495.536.495.845.495l1.67.124c1.525.185 1.71 1.009 1.792 2.37.083 1.38.083 2.576.083 9.191v7.625c0 3.977 0 7.419-.227 9.232-.165 1.154-.35 2.123-1.174 2.288l-1.546.165c-.474.041-.804.041-.804.453 0 .536.721.536.969.536l2.988-.083 2.473-.041 4.513.124 1.257.041 6.245.103c1.628 0 2.122 0 2.452-1.216.227-.886.577-3.812.577-4.843 0-.432 0-.886-.453-.886-.413 0-.516.309-.577.742-.31 1.793-.825 2.638-1.896 3.133-1.113.515-2.947.515-4.04.515-4.492 0-5.007-.722-5.09-3.545v-10.139c0-.33.083-.33.144-.33.969 0 5.317.041 6.142.124 1.38.144 2.102.639 2.328 1.607l.145 1.154.02.392c0 .309.165.494.495.494.494 0 .494-.597.494-.927l.083-1.401.082-1.505.289-2.699.062-.474c0-.289-.145-.454-.412-.454-.248 0-.433.206-.722.536-.412.474-1.051.598-2.061.68-.638.062-3.091.083-6.924.083-.144 0-.185-.042-.185-.371v-10.964c0-.33.103-.33.185-.33.845 0 5.399.083 6.141.165 2.185.268 2.535.783 2.824 1.505.247.577.247 1.422.247 1.525 0 .206 0 .721.495.721.432 0 .515-.433.535-.557l.165-1.978.062-.886.289-2.391.061-.432c.042-.392-.123-.495-.371-.495-.35-.021-1.731.392-2.534.412"/></svg>